<svg xmlns="http://www.w3.org/2000/svg" xmlns:xlink="http://www.w3.org/1999/xlink" width="500" zoomAndPan="magnify" viewBox="0 0 375 374.999991" height="500" preserveAspectRatio="xMidYMid meet" version="1.0"><defs><g><g id="id1"/></g><clipPath id="id2"><path d="M 169 60.296875 L 201 60.296875 L 201 154 L 169 154 Z M 169 60.296875 " clip-rule="nonzero"/></clipPath></defs><rect x="-37.5" width="450" fill="rgb(100%, 100%, 100%)" y="-37.499999" height="449.999989" fill-opacity="1"/><rect x="-37.5" width="450" fill="rgb(100%, 100%, 100%)" y="-37.499999" height="449.999989" fill-opacity="1"/><rect x="-37.5" width="450" fill="rgb(88.62915%, 87.059021%, 83.529663%)" y="-37.499999" height="449.999989" fill-opacity="1"/><path fill="rgb(22.349548%, 20.779419%, 21.179199%)" d="M 212.949219 103.210938 C 215.304688 115.785156 213.804688 124.335938 200.40625 135.28125 C 184.117188 148.585938 185.769531 159.96875 185.769531 159.96875 C 189.867188 144.210938 211.121094 139.746094 216.261719 125.285156 C 219.921875 114.984375 212.949219 103.210938 212.949219 103.210938 " fill-opacity="1" fill-rule="nonzero"/><g clip-path="url(#id2)"><path fill="rgb(22.349548%, 20.779419%, 21.179199%)" d="M 186.246094 150.96875 L 186.246094 142.265625 C 187.242188 137.761719 188.558594 134.988281 189.640625 133.332031 C 199.304688 133.859375 200.074219 127.628906 199.769531 122.058594 C 199.523438 117.605469 200.996094 114.816406 200.996094 114.816406 C 185.644531 118.976562 188.351562 130.480469 189.097656 132.871094 C 188.140625 134.316406 187.117188 136.40625 186.246094 139.414062 L 186.246094 124.667969 C 187.164062 120.507812 188.359375 117.824219 189.390625 116.132812 C 198.683594 116.714844 199.417969 110.796875 199.128906 105.503906 C 198.898438 101.304688 200.289062 98.671875 200.289062 98.671875 C 186.296875 102.460938 188.203125 112.722656 188.984375 115.449219 C 188.058594 116.886719 187.082031 118.929688 186.246094 121.816406 L 186.246094 108.738281 C 187.203125 104.40625 188.457031 101.675781 189.515625 100 C 198.078125 100.460938 198.761719 94.9375 198.488281 89.996094 C 198.273438 86.046875 199.578125 83.570312 199.578125 83.570312 C 186.148438 87.210938 188.300781 97.191406 188.996094 99.496094 C 188.066406 100.9375 187.089844 102.984375 186.246094 105.886719 L 186.246094 93.453125 C 187.167969 89.277344 188.367188 86.589844 189.398438 84.898438 C 197.464844 85.351562 198.105469 80.171875 197.851562 75.535156 C 197.644531 71.835938 198.871094 69.515625 198.871094 69.515625 C 186.496094 72.871094 188.246094 81.972656 188.925781 84.320312 C 187.824219 86.066406 186.652344 88.671875 185.734375 92.546875 C 185.707031 92.660156 185.648438 92.753906 185.566406 92.824219 L 185.566406 78.464844 C 195.058594 72.070312 185.199219 60.332031 185.199219 60.332031 C 185.199219 60.332031 175.335938 72.070312 184.828125 78.464844 L 184.828125 92.824219 C 184.75 92.753906 184.6875 92.660156 184.664062 92.546875 C 183.742188 88.671875 182.570312 86.066406 181.46875 84.320312 C 182.148438 81.972656 183.898438 72.871094 171.523438 69.515625 C 171.523438 69.515625 172.75 71.835938 172.546875 75.535156 C 172.289062 80.171875 172.929688 85.351562 180.996094 84.898438 C 182.027344 86.589844 183.226562 89.277344 184.152344 93.453125 L 184.152344 105.886719 C 183.308594 102.984375 182.328125 100.9375 181.402344 99.496094 C 182.097656 97.191406 184.25 87.210938 170.816406 83.570312 C 170.816406 83.570312 172.125 86.046875 171.90625 89.996094 C 171.632812 94.9375 172.316406 100.460938 180.882812 100 C 181.9375 101.675781 183.191406 104.40625 184.152344 108.738281 L 184.152344 121.816406 C 183.3125 118.929688 182.335938 116.886719 181.414062 115.449219 C 182.191406 112.722656 184.101562 102.460938 170.105469 98.671875 C 170.105469 98.671875 171.5 101.304688 171.265625 105.503906 C 170.976562 110.796875 171.714844 116.714844 181.007812 116.132812 C 182.035156 117.824219 183.230469 120.507812 184.152344 124.667969 L 184.152344 139.414062 C 183.277344 136.40625 182.253906 134.316406 181.296875 132.871094 C 182.042969 130.480469 184.75 118.976562 169.398438 114.816406 C 169.398438 114.816406 170.875 117.605469 170.628906 122.058594 C 170.320312 127.628906 171.089844 133.859375 180.757812 133.332031 C 181.835938 134.988281 183.15625 137.761719 184.152344 142.265625 L 184.152344 150.96875 C 184.324219 151.390625 184.480469 151.792969 184.621094 152.175781 C 184.847656 152.816406 185.039062 153.421875 185.199219 153.996094 C 185.355469 153.421875 185.546875 152.816406 185.777344 152.175781 C 185.914062 151.792969 186.070312 151.390625 186.246094 150.96875 " fill-opacity="1" fill-rule="nonzero"/></g><path fill="rgb(22.349548%, 20.779419%, 21.179199%)" d="M 169.988281 135.28125 C 156.589844 124.335938 155.09375 115.785156 157.445312 103.210938 C 157.445312 103.210938 150.472656 114.984375 154.136719 125.285156 C 159.273438 139.746094 180.53125 144.210938 184.625 159.96875 C 184.625 159.96875 186.28125 148.585938 169.988281 135.28125 " fill-opacity="1" fill-rule="nonzero"/><g fill="rgb(0%, 0%, 0%)" fill-opacity="1"><g transform="translate(35.778029, 231.884086)"><g><path d="M 23.609375 0.65625 C 21.554688 0.65625 19.585938 0.375 17.703125 -0.1875 C 13.117188 -1.582031 9.800781 -4.175781 7.75 -7.96875 C 5.707031 -11.769531 4.703125 -16.234375 4.734375 -21.359375 L 7.484375 -21.109375 C 7.265625 -19.597656 7.15625 -18.226562 7.15625 -17 C 7.15625 -13.363281 7.921875 -10.273438 9.453125 -7.734375 C 10.984375 -5.203125 12.988281 -3.300781 15.46875 -2.03125 C 17.957031 -0.757812 20.625 -0.125 23.46875 -0.125 C 26.132812 -0.125 28.679688 -0.6875 31.109375 -1.8125 C 33.535156 -2.9375 35.535156 -4.550781 37.109375 -6.65625 C 38.078125 -7.957031 38.78125 -9.335938 39.21875 -10.796875 C 39.664062 -12.253906 39.890625 -13.742188 39.890625 -15.265625 C 39.890625 -16.617188 39.722656 -17.921875 39.390625 -19.171875 C 39.054688 -20.429688 38.628906 -21.515625 38.109375 -22.421875 C 37.316406 -23.773438 36.296875 -24.957031 35.046875 -25.96875 C 33.796875 -26.976562 32.460938 -27.832031 31.046875 -28.53125 C 29.640625 -29.226562 28.007812 -29.925781 26.15625 -30.625 C 25.019531 -31.050781 24.050781 -31.394531 23.25 -31.65625 C 20.832031 -32.53125 18.898438 -33.273438 17.453125 -33.890625 C 16.003906 -34.503906 14.675781 -35.25 13.46875 -36.125 C 12.414062 -36.875 11.519531 -37.753906 10.78125 -38.765625 C 10.050781 -39.773438 9.53125 -40.875 9.21875 -42.0625 C 8.976562 -42.945312 8.859375 -43.953125 8.859375 -45.078125 C 8.859375 -47.222656 9.351562 -49.285156 10.34375 -51.265625 C 11.34375 -53.253906 12.722656 -54.84375 14.484375 -56.03125 C 15.835938 -56.957031 17.347656 -57.660156 19.015625 -58.140625 C 20.679688 -58.628906 22.378906 -58.875 24.109375 -58.875 C 25.554688 -58.875 26.972656 -58.703125 28.359375 -58.359375 C 29.753906 -58.015625 31.035156 -57.515625 32.203125 -56.859375 C 36.078125 -54.660156 38.289062 -51.195312 38.84375 -46.46875 L 36.09375 -46.453125 C 36.15625 -47.085938 36.1875 -47.546875 36.1875 -47.828125 C 36.1875 -49.898438 35.617188 -51.710938 34.484375 -53.265625 C 33.359375 -54.816406 31.878906 -56.003906 30.046875 -56.828125 C 28.210938 -57.648438 26.269531 -58.0625 24.21875 -58.0625 C 22.90625 -58.0625 21.617188 -57.882812 20.359375 -57.53125 C 19.109375 -57.175781 17.953125 -56.648438 16.890625 -55.953125 C 15.191406 -54.828125 13.890625 -53.40625 12.984375 -51.6875 C 12.085938 -49.976562 11.640625 -48.140625 11.640625 -46.171875 L 11.609375 -45.40625 C 11.609375 -43.875 11.910156 -42.539062 12.515625 -41.40625 C 13.128906 -40.28125 13.945312 -39.320312 14.96875 -38.53125 C 15.988281 -37.738281 17.25 -36.988281 18.75 -36.28125 C 19.707031 -35.820312 20.691406 -35.390625 21.703125 -34.984375 C 22.710938 -34.585938 23.992188 -34.097656 25.546875 -33.515625 L 28.484375 -32.390625 C 30.585938 -31.578125 32.429688 -30.738281 34.015625 -29.875 C 35.609375 -29.007812 37.039062 -27.960938 38.3125 -26.734375 C 39.59375 -25.515625 40.59375 -24.078125 41.3125 -22.421875 C 42.207031 -20.316406 42.65625 -18.128906 42.65625 -15.859375 C 42.65625 -13.203125 42.003906 -10.703125 40.703125 -8.359375 C 39.410156 -6.023438 37.597656 -4.109375 35.265625 -2.609375 C 33.585938 -1.546875 31.738281 -0.734375 29.71875 -0.171875 C 27.695312 0.378906 25.660156 0.65625 23.609375 0.65625 Z M 23.609375 0.65625 "/></g></g></g><g fill="rgb(0%, 0%, 0%)" fill-opacity="1"><g transform="translate(81.27713, 231.884086)"><g><path d="M 9 -0.375 C 9.332031 -0.375 9.640625 -0.378906 9.921875 -0.390625 C 10.210938 -0.410156 10.445312 -0.453125 10.625 -0.515625 C 8.332031 -2.671875 6.539062 -5.203125 5.25 -8.109375 C 3.957031 -11.023438 3.3125 -14.113281 3.3125 -17.375 C 3.3125 -21.5625 4.347656 -25.421875 6.421875 -28.953125 C 8.503906 -32.492188 11.3125 -35.300781 14.84375 -37.375 C 18.375 -39.457031 22.234375 -40.5 26.421875 -40.5 C 26.753906 -40.5 27.222656 -40.484375 27.828125 -40.453125 L 34.703125 -57.109375 L 33.96875 -58.875 L 36.953125 -58.875 L 59.8125 -3.25 C 60.226562 -2.3125 60.597656 -1.640625 60.921875 -1.234375 C 61.253906 -0.835938 61.59375 -0.59375 61.9375 -0.5 C 62.289062 -0.414062 62.820312 -0.375 63.53125 -0.375 L 63.53125 0 L 55.453125 0 L 55.453125 -0.375 C 56.234375 -0.375 56.757812 -0.414062 57.03125 -0.5 C 57.3125 -0.59375 57.453125 -0.789062 57.453125 -1.09375 C 57.453125 -1.257812 57.398438 -1.5 57.296875 -1.8125 C 57.203125 -2.132812 57.09375 -2.488281 56.96875 -2.875 C 56.8125 -3.332031 56.710938 -3.625 56.671875 -3.75 L 47.140625 -26.875 C 46.015625 -29.28125 44.492188 -31.425781 42.578125 -33.3125 C 40.660156 -35.195312 38.46875 -36.710938 36 -37.859375 C 33.53125 -39.003906 30.929688 -39.679688 28.203125 -39.890625 L 12.984375 -2.96875 C 12.847656 -2.539062 12.726562 -2.15625 12.625 -1.8125 C 12.519531 -1.46875 12.46875 -1.210938 12.46875 -1.046875 C 12.46875 -0.773438 12.570312 -0.59375 12.78125 -0.5 C 13 -0.414062 13.390625 -0.375 13.953125 -0.375 L 14.265625 -0.375 L 14.265625 0 L 9 0 Z M 28.421875 -40.40625 C 31.890625 -40.101562 35.125 -39.082031 38.125 -37.34375 C 41.132812 -35.613281 43.625 -33.359375 45.59375 -30.578125 L 34.984375 -56.375 Z M 11.140625 -0.8125 C 11.359375 -0.976562 11.566406 -1.238281 11.765625 -1.59375 C 11.960938 -1.957031 12.195312 -2.46875 12.46875 -3.125 L 27.609375 -39.90625 C 27.359375 -39.925781 26.960938 -39.9375 26.421875 -39.9375 C 22.347656 -39.9375 18.582031 -38.921875 15.125 -36.890625 C 11.664062 -34.867188 8.921875 -32.132812 6.890625 -28.6875 C 4.867188 -25.238281 3.859375 -21.46875 3.859375 -17.375 C 3.859375 -14.164062 4.5 -11.125 5.78125 -8.25 C 7.070312 -5.382812 8.859375 -2.90625 11.140625 -0.8125 Z M 11.140625 -0.8125 "/></g></g></g><g fill="rgb(0%, 0%, 0%)" fill-opacity="1"><g transform="translate(146.231915, 231.884086)"><g><path d="M 6.109375 -0.453125 C 6.773438 -0.453125 7.226562 -0.515625 7.46875 -0.640625 C 7.707031 -0.765625 7.859375 -1.035156 7.921875 -1.453125 C 7.984375 -1.867188 8.015625 -2.65625 8.015625 -3.8125 L 8.015625 -54.953125 L 7.515625 -56.1875 C 7.210938 -56.945312 6.953125 -57.46875 6.734375 -57.75 C 6.523438 -58.039062 6.257812 -58.21875 5.9375 -58.28125 C 5.625 -58.351562 5.066406 -58.390625 4.265625 -58.390625 L 4.265625 -58.875 L 11.921875 -58.875 L 11.921875 -58.390625 L 11.6875 -58.390625 C 11.113281 -58.390625 10.710938 -58.335938 10.484375 -58.234375 C 10.253906 -58.140625 10.140625 -57.945312 10.140625 -57.65625 C 10.140625 -57.4375 10.207031 -57.109375 10.34375 -56.671875 C 10.476562 -56.242188 10.648438 -55.753906 10.859375 -55.203125 L 30.5 -5.3125 L 30.5 -55.3125 C 30.488281 -56.34375 30.441406 -57.054688 30.359375 -57.453125 C 30.273438 -57.847656 30.097656 -58.109375 29.828125 -58.234375 C 29.566406 -58.359375 29.085938 -58.421875 28.390625 -58.421875 L 27.828125 -58.421875 L 27.828125 -58.875 L 33.71875 -58.875 L 33.71875 -58.421875 L 32.9375 -58.421875 C 32.28125 -58.421875 31.832031 -58.359375 31.59375 -58.234375 C 31.351562 -58.117188 31.203125 -57.867188 31.140625 -57.484375 C 31.078125 -57.097656 31.046875 -56.375 31.046875 -55.3125 L 31.046875 -3.90625 L 31.546875 -2.671875 C 31.847656 -1.921875 32.101562 -1.398438 32.3125 -1.109375 C 32.53125 -0.828125 32.796875 -0.648438 33.109375 -0.578125 C 33.421875 -0.503906 33.984375 -0.46875 34.796875 -0.46875 L 34.796875 0 L 27.140625 0 L 27.140625 -0.46875 L 27.375 -0.46875 C 27.957031 -0.46875 28.363281 -0.519531 28.59375 -0.625 C 28.820312 -0.726562 28.9375 -0.914062 28.9375 -1.1875 C 28.9375 -1.375 28.882812 -1.632812 28.78125 -1.96875 C 28.675781 -2.300781 28.554688 -2.671875 28.421875 -3.078125 L 28.203125 -3.65625 L 8.5625 -53.53125 L 8.5625 -3.8125 C 8.59375 -2.65625 8.644531 -1.867188 8.71875 -1.453125 C 8.800781 -1.035156 8.972656 -0.765625 9.234375 -0.640625 C 9.492188 -0.515625 9.972656 -0.453125 10.671875 -0.453125 L 11.234375 -0.453125 L 11.234375 0 L 5.328125 0 L 5.328125 -0.453125 Z M 6.109375 -0.453125 "/></g></g></g><g fill="rgb(0%, 0%, 0%)" fill-opacity="1"><g transform="translate(183.389491, 231.884086)"><g><path d="M 4.265625 -0.375 C 5.179688 -0.375 5.820312 -0.460938 6.1875 -0.640625 C 6.550781 -0.828125 6.765625 -1.082031 6.828125 -1.40625 C 6.890625 -1.726562 6.921875 -2.34375 6.921875 -3.25 L 6.921875 -55.625 C 6.921875 -56.488281 6.851562 -57.117188 6.71875 -57.515625 C 6.582031 -57.910156 6.335938 -58.171875 5.984375 -58.296875 C 5.628906 -58.421875 5.054688 -58.484375 4.265625 -58.484375 L 4.265625 -58.875 L 6.875 -58.875 L 11.984375 -58.890625 C 12.648438 -58.910156 13.53125 -58.921875 14.625 -58.921875 C 15.789062 -58.921875 16.789062 -58.890625 17.625 -58.828125 C 18.46875 -58.773438 19.367188 -58.675781 20.328125 -58.53125 C 23.265625 -58.070312 26.066406 -57.15625 28.734375 -55.78125 C 31.410156 -54.40625 33.8125 -52.648438 35.9375 -50.515625 C 38.0625 -48.390625 39.804688 -45.960938 41.171875 -43.234375 C 42.222656 -41.078125 43.015625 -38.832031 43.546875 -36.5 C 44.085938 -34.175781 44.359375 -31.828125 44.359375 -29.453125 C 44.359375 -25.046875 43.476562 -20.832031 41.71875 -16.8125 C 39.957031 -12.789062 37.394531 -9.34375 34.03125 -6.46875 C 30.664062 -3.59375 26.675781 -1.664062 22.0625 -0.6875 C 20.625 -0.375 19.335938 -0.179688 18.203125 -0.109375 C 17.078125 -0.0351562 15 0 11.96875 0 L 4.265625 0 Z M 12.625 -0.546875 C 15.0625 -0.546875 16.96875 -0.597656 18.34375 -0.703125 C 19.71875 -0.804688 21.109375 -1.0625 22.515625 -1.46875 C 23.921875 -1.875 25.507812 -2.535156 27.28125 -3.453125 C 30.3125 -5.085938 32.90625 -7.269531 35.0625 -10 C 37.21875 -12.726562 38.851562 -15.773438 39.96875 -19.140625 C 41.082031 -22.515625 41.640625 -25.984375 41.640625 -29.546875 C 41.640625 -33.054688 41.09375 -36.46875 40 -39.78125 C 38.914062 -43.101562 37.289062 -46.109375 35.125 -48.796875 C 32.75 -51.753906 29.894531 -54.046875 26.5625 -55.671875 C 23.226562 -57.296875 19.585938 -58.171875 15.640625 -58.296875 C 14.691406 -58.328125 13.945312 -58.34375 13.40625 -58.34375 C 12.914062 -58.34375 12.117188 -58.328125 11.015625 -58.296875 C 10.460938 -58.285156 10.097656 -58.070312 9.921875 -57.65625 C 9.753906 -57.25 9.671875 -56.570312 9.671875 -55.625 L 9.671875 -3.15625 C 9.671875 -2.40625 9.691406 -1.867188 9.734375 -1.546875 C 9.785156 -1.222656 9.910156 -0.972656 10.109375 -0.796875 C 10.304688 -0.628906 10.632812 -0.546875 11.09375 -0.546875 Z M 12.625 -0.546875 "/></g></g></g><g fill="rgb(0%, 0%, 0%)" fill-opacity="1"><g transform="translate(229.054484, 231.884086)"><g><path d="M 59.265625 0.140625 C 57.203125 1.148438 55.023438 1.65625 52.734375 1.65625 C 49.585938 1.65625 46.304688 0.804688 42.890625 -0.890625 C 39.484375 -2.597656 35.722656 -5.003906 31.609375 -8.109375 C 30.585938 -8.867188 29.550781 -9.703125 28.5 -10.609375 C 27.445312 -11.515625 26.019531 -12.765625 24.21875 -14.359375 C 21.863281 -16.441406 19.929688 -18.113281 18.421875 -19.375 C 16.910156 -20.644531 15.382812 -21.757812 13.84375 -22.71875 C 12.3125 -23.675781 10.925781 -24.253906 9.6875 -24.453125 L 9.6875 -3.25 C 9.6875 -2.394531 9.773438 -1.765625 9.953125 -1.359375 C 10.128906 -0.960938 10.394531 -0.695312 10.75 -0.5625 C 11.101562 -0.4375 11.632812 -0.375 12.34375 -0.375 L 12.34375 0 L 4.265625 0 L 4.265625 -0.375 C 4.992188 -0.375 5.539062 -0.4375 5.90625 -0.5625 C 6.269531 -0.695312 6.53125 -0.960938 6.6875 -1.359375 C 6.851562 -1.765625 6.9375 -2.394531 6.9375 -3.25 L 6.9375 -55.625 C 6.9375 -56.507812 6.859375 -57.132812 6.703125 -57.5 C 6.546875 -57.875 6.304688 -58.097656 5.984375 -58.171875 C 5.660156 -58.242188 5.085938 -58.28125 4.265625 -58.28125 L 4.265625 -58.875 L 29.890625 -58.875 C 32.859375 -58.875 35.445312 -58.363281 37.65625 -57.34375 C 39.863281 -56.320312 41.914062 -54.863281 43.8125 -52.96875 C 45.019531 -51.769531 46.070312 -50.335938 46.96875 -48.671875 C 47.875 -47.003906 48.515625 -45.335938 48.890625 -43.671875 C 49.285156 -42.003906 49.484375 -40.316406 49.484375 -38.609375 C 49.484375 -35.472656 48.789062 -32.519531 47.40625 -29.75 C 46.1875 -27.34375 44.566406 -25.242188 42.546875 -23.453125 C 40.535156 -21.671875 38.257812 -20.300781 35.71875 -19.34375 C 33.1875 -18.394531 30.546875 -17.921875 27.796875 -17.921875 C 27.023438 -17.921875 26.125 -17.992188 25.09375 -18.140625 C 24.070312 -18.285156 23.195312 -18.460938 22.46875 -18.671875 C 23.945312 -17.679688 25.40625 -16.617188 26.84375 -15.484375 C 28.289062 -14.359375 30.457031 -12.601562 33.34375 -10.21875 C 33.925781 -9.757812 34.453125 -9.332031 34.921875 -8.9375 C 35.390625 -8.539062 35.804688 -8.203125 36.171875 -7.921875 C 39.578125 -5.117188 42.679688 -3 45.484375 -1.5625 C 48.296875 -0.125 51.0625 0.59375 53.78125 0.59375 C 55.53125 0.59375 57.28125 0.273438 59.03125 -0.359375 Z M 27.109375 -18.53125 C 29.484375 -18.53125 31.863281 -19.023438 34.25 -20.015625 C 36.632812 -21.003906 38.785156 -22.40625 40.703125 -24.21875 C 42.617188 -26.039062 44.082031 -28.132812 45.09375 -30.5 C 46.207031 -33.332031 46.765625 -36.097656 46.765625 -38.796875 C 46.765625 -40.203125 46.632812 -41.507812 46.375 -42.71875 C 46.125 -43.925781 45.796875 -45.175781 45.390625 -46.46875 C 44.785156 -47.769531 44.253906 -48.796875 43.796875 -49.546875 C 43.347656 -50.304688 42.851562 -50.992188 42.3125 -51.609375 C 41.769531 -52.234375 41.023438 -52.988281 40.078125 -53.875 C 38.671875 -55.175781 37 -56.191406 35.0625 -56.921875 C 33.125 -57.648438 31.070312 -58.054688 28.90625 -58.140625 C 26.570312 -58.210938 24.648438 -58.257812 23.140625 -58.28125 C 21.628906 -58.3125 19.859375 -58.328125 17.828125 -58.328125 L 14.625 -58.328125 C 13.195312 -58.328125 12.160156 -58.28125 11.515625 -58.1875 C 10.878906 -58.09375 10.414062 -57.851562 10.125 -57.46875 C 9.832031 -57.09375 9.6875 -56.476562 9.6875 -55.625 L 9.6875 -27.375 C 10.71875 -26.238281 11.632812 -25.34375 12.4375 -24.6875 L 12.84375 -24.359375 C 14.0625 -23.929688 15.257812 -23.363281 16.4375 -22.65625 C 17.625 -21.957031 19.238281 -20.90625 21.28125 -19.5 C 23.269531 -18.851562 25.210938 -18.53125 27.109375 -18.53125 Z M 11.828125 -24.71875 C 11.210938 -25.257812 10.507812 -25.921875 9.71875 -26.703125 L 9.6875 -26.734375 L 9.6875 -25.21875 L 9.8125 -25.21875 C 10.113281 -25.21875 10.546875 -25.125 11.109375 -24.9375 L 11.65625 -24.765625 Z M 11.828125 -24.71875 "/></g></g></g><g fill="rgb(0%, 0%, 0%)" fill-opacity="1"><g transform="translate(286.426059, 231.884086)"><g><path d="M 9 -0.375 C 9.332031 -0.375 9.640625 -0.378906 9.921875 -0.390625 C 10.210938 -0.410156 10.445312 -0.453125 10.625 -0.515625 C 8.332031 -2.671875 6.539062 -5.203125 5.25 -8.109375 C 3.957031 -11.023438 3.3125 -14.113281 3.3125 -17.375 C 3.3125 -21.5625 4.347656 -25.421875 6.421875 -28.953125 C 8.503906 -32.492188 11.3125 -35.300781 14.84375 -37.375 C 18.375 -39.457031 22.234375 -40.5 26.421875 -40.5 C 26.753906 -40.5 27.222656 -40.484375 27.828125 -40.453125 L 34.703125 -57.109375 L 33.96875 -58.875 L 36.953125 -58.875 L 59.8125 -3.25 C 60.226562 -2.3125 60.597656 -1.640625 60.921875 -1.234375 C 61.253906 -0.835938 61.59375 -0.59375 61.9375 -0.5 C 62.289062 -0.414062 62.820312 -0.375 63.53125 -0.375 L 63.53125 0 L 55.453125 0 L 55.453125 -0.375 C 56.234375 -0.375 56.757812 -0.414062 57.03125 -0.5 C 57.3125 -0.59375 57.453125 -0.789062 57.453125 -1.09375 C 57.453125 -1.257812 57.398438 -1.5 57.296875 -1.8125 C 57.203125 -2.132812 57.09375 -2.488281 56.96875 -2.875 C 56.8125 -3.332031 56.710938 -3.625 56.671875 -3.75 L 47.140625 -26.875 C 46.015625 -29.28125 44.492188 -31.425781 42.578125 -33.3125 C 40.660156 -35.195312 38.46875 -36.710938 36 -37.859375 C 33.53125 -39.003906 30.929688 -39.679688 28.203125 -39.890625 L 12.984375 -2.96875 C 12.847656 -2.539062 12.726562 -2.15625 12.625 -1.8125 C 12.519531 -1.46875 12.46875 -1.210938 12.46875 -1.046875 C 12.46875 -0.773438 12.570312 -0.59375 12.78125 -0.5 C 13 -0.414062 13.390625 -0.375 13.953125 -0.375 L 14.265625 -0.375 L 14.265625 0 L 9 0 Z M 28.421875 -40.40625 C 31.890625 -40.101562 35.125 -39.082031 38.125 -37.34375 C 41.132812 -35.613281 43.625 -33.359375 45.59375 -30.578125 L 34.984375 -56.375 Z M 11.140625 -0.8125 C 11.359375 -0.976562 11.566406 -1.238281 11.765625 -1.59375 C 11.960938 -1.957031 12.195312 -2.46875 12.46875 -3.125 L 27.609375 -39.90625 C 27.359375 -39.925781 26.960938 -39.9375 26.421875 -39.9375 C 22.347656 -39.9375 18.582031 -38.921875 15.125 -36.890625 C 11.664062 -34.867188 8.921875 -32.132812 6.890625 -28.6875 C 4.867188 -25.238281 3.859375 -21.46875 3.859375 -17.375 C 3.859375 -14.164062 4.5 -11.125 5.78125 -8.25 C 7.070312 -5.382812 8.859375 -2.90625 11.140625 -0.8125 Z M 11.140625 -0.8125 "/></g></g></g><g fill="rgb(0%, 0%, 0%)" fill-opacity="1"><g transform="translate(38.352338, 288.616821)"><g><path d="M 4.265625 -0.375 C 5.097656 -0.375 5.703125 -0.457031 6.078125 -0.625 C 6.453125 -0.789062 6.6875 -1.0625 6.78125 -1.4375 C 6.882812 -1.820312 6.9375 -2.425781 6.9375 -3.25 L 6.9375 -56 C 6.9375 -56.664062 6.851562 -57.175781 6.6875 -57.53125 C 6.53125 -57.882812 6.335938 -58.117188 6.109375 -58.234375 C 5.890625 -58.359375 5.613281 -58.453125 5.28125 -58.515625 C 5.082031 -58.554688 4.941406 -58.597656 4.859375 -58.640625 C 4.773438 -58.679688 4.734375 -58.757812 4.734375 -58.875 L 10.6875 -58.875 C 10.6875 -58.695312 10.585938 -58.578125 10.390625 -58.515625 C 10.191406 -58.460938 10.023438 -58.328125 9.890625 -58.109375 C 9.753906 -57.890625 9.6875 -57.398438 9.6875 -56.640625 L 9.6875 -55.4375 L 10.09375 -55.734375 C 11.101562 -56.484375 11.957031 -57.0625 12.65625 -57.46875 C 13.363281 -57.882812 14.253906 -58.222656 15.328125 -58.484375 C 16.398438 -58.742188 17.738281 -58.875 19.34375 -58.875 C 21.34375 -58.875 23.382812 -58.390625 25.46875 -57.421875 C 27.5625 -56.460938 29.296875 -55.050781 30.671875 -53.1875 C 32.054688 -51.332031 32.75 -49.140625 32.75 -46.609375 C 32.75 -44.679688 32.320312 -42.90625 31.46875 -41.28125 C 30.613281 -39.65625 29.425781 -38.285156 27.90625 -37.171875 C 26.394531 -36.054688 24.675781 -35.265625 22.75 -34.796875 L 23.421875 -34.765625 C 26.296875 -34.648438 29.0625 -33.882812 31.71875 -32.46875 C 34.382812 -31.0625 36.550781 -29.050781 38.21875 -26.4375 C 39.894531 -23.832031 40.734375 -20.800781 40.734375 -17.34375 C 40.734375 -14.070312 40.003906 -11.125 38.546875 -8.5 C 37.097656 -5.882812 34.910156 -3.8125 31.984375 -2.28125 C 29.066406 -0.757812 25.484375 0 21.234375 0 L 4.265625 0 Z M 21.953125 -35.03125 C 23.367188 -35.375 24.648438 -35.898438 25.796875 -36.609375 C 26.953125 -37.328125 27.945312 -38.488281 28.78125 -40.09375 C 29.613281 -41.707031 30.019531 -43.878906 30 -46.609375 C 29.96875 -49.742188 29.207031 -52.390625 27.71875 -54.546875 C 26.238281 -56.710938 23.757812 -57.945312 20.28125 -58.25 C 19.820312 -58.300781 19.363281 -58.328125 18.90625 -58.328125 C 17.175781 -58.328125 15.507812 -58.015625 13.90625 -57.390625 C 12.3125 -56.765625 10.90625 -55.75 9.6875 -54.34375 L 9.6875 -43.75 C 9.6875 -42.84375 9.882812 -41.921875 10.28125 -40.984375 C 10.675781 -40.054688 11.226562 -39.207031 11.9375 -38.4375 C 12.65625 -37.664062 13.460938 -37.050781 14.359375 -36.59375 C 16.523438 -35.46875 18.613281 -34.90625 20.625 -34.90625 C 21.15625 -34.90625 21.597656 -34.945312 21.953125 -35.03125 Z M 21.234375 -0.5625 C 23.472656 -0.5625 25.863281 -1.03125 28.40625 -1.96875 C 30.957031 -2.914062 33.1875 -4.625 35.09375 -7.09375 C 37.007812 -9.570312 37.96875 -12.925781 37.96875 -17.15625 C 37.96875 -19.226562 37.628906 -21.585938 36.953125 -24.234375 C 36.285156 -26.878906 34.75 -29.03125 32.34375 -30.6875 C 30.875 -31.695312 29.53125 -32.453125 28.3125 -32.953125 C 27.101562 -33.460938 26.046875 -33.785156 25.140625 -33.921875 C 24.242188 -34.054688 23.21875 -34.148438 22.0625 -34.203125 C 21.9375 -34.203125 21.613281 -34.21875 21.09375 -34.25 C 20.570312 -34.28125 20.085938 -34.332031 19.640625 -34.40625 C 16.484375 -34.976562 14.160156 -35.875 12.671875 -37.09375 C 11.191406 -38.320312 10.195312 -39.632812 9.6875 -41.03125 L 9.6875 -3.359375 C 9.6875 -2.554688 9.722656 -1.96875 9.796875 -1.59375 C 9.867188 -1.226562 10.019531 -0.960938 10.25 -0.796875 C 10.476562 -0.640625 10.851562 -0.5625 11.375 -0.5625 Z M 21.234375 -0.5625 "/></g></g></g><g fill="rgb(0%, 0%, 0%)" fill-opacity="1"><g transform="translate(81.457989, 288.616821)"><g><path d="M 9 -0.375 C 9.332031 -0.375 9.640625 -0.378906 9.921875 -0.390625 C 10.210938 -0.410156 10.445312 -0.453125 10.625 -0.515625 C 8.332031 -2.671875 6.539062 -5.203125 5.25 -8.109375 C 3.957031 -11.023438 3.3125 -14.113281 3.3125 -17.375 C 3.3125 -21.5625 4.347656 -25.421875 6.421875 -28.953125 C 8.503906 -32.492188 11.3125 -35.300781 14.84375 -37.375 C 18.375 -39.457031 22.234375 -40.5 26.421875 -40.5 C 26.753906 -40.5 27.222656 -40.484375 27.828125 -40.453125 L 34.703125 -57.109375 L 33.96875 -58.875 L 36.953125 -58.875 L 59.8125 -3.25 C 60.226562 -2.3125 60.597656 -1.640625 60.921875 -1.234375 C 61.253906 -0.835938 61.59375 -0.59375 61.9375 -0.5 C 62.289062 -0.414062 62.820312 -0.375 63.53125 -0.375 L 63.53125 0 L 55.453125 0 L 55.453125 -0.375 C 56.234375 -0.375 56.757812 -0.414062 57.03125 -0.5 C 57.3125 -0.59375 57.453125 -0.789062 57.453125 -1.09375 C 57.453125 -1.257812 57.398438 -1.5 57.296875 -1.8125 C 57.203125 -2.132812 57.09375 -2.488281 56.96875 -2.875 C 56.8125 -3.332031 56.710938 -3.625 56.671875 -3.75 L 47.140625 -26.875 C 46.015625 -29.28125 44.492188 -31.425781 42.578125 -33.3125 C 40.660156 -35.195312 38.46875 -36.710938 36 -37.859375 C 33.53125 -39.003906 30.929688 -39.679688 28.203125 -39.890625 L 12.984375 -2.96875 C 12.847656 -2.539062 12.726562 -2.15625 12.625 -1.8125 C 12.519531 -1.46875 12.46875 -1.210938 12.46875 -1.046875 C 12.46875 -0.773438 12.570312 -0.59375 12.78125 -0.5 C 13 -0.414062 13.390625 -0.375 13.953125 -0.375 L 14.265625 -0.375 L 14.265625 0 L 9 0 Z M 28.421875 -40.40625 C 31.890625 -40.101562 35.125 -39.082031 38.125 -37.34375 C 41.132812 -35.613281 43.625 -33.359375 45.59375 -30.578125 L 34.984375 -56.375 Z M 11.140625 -0.8125 C 11.359375 -0.976562 11.566406 -1.238281 11.765625 -1.59375 C 11.960938 -1.957031 12.195312 -2.46875 12.46875 -3.125 L 27.609375 -39.90625 C 27.359375 -39.925781 26.960938 -39.9375 26.421875 -39.9375 C 22.347656 -39.9375 18.582031 -38.921875 15.125 -36.890625 C 11.664062 -34.867188 8.921875 -32.132812 6.890625 -28.6875 C 4.867188 -25.238281 3.859375 -21.46875 3.859375 -17.375 C 3.859375 -14.164062 4.5 -11.125 5.78125 -8.25 C 7.070312 -5.382812 8.859375 -2.90625 11.140625 -0.8125 Z M 11.140625 -0.8125 "/></g></g></g><g fill="rgb(0%, 0%, 0%)" fill-opacity="1"><g transform="translate(146.412774, 288.616821)"><g><path d="M 6.109375 -0.453125 C 6.773438 -0.453125 7.226562 -0.515625 7.46875 -0.640625 C 7.707031 -0.765625 7.859375 -1.035156 7.921875 -1.453125 C 7.984375 -1.867188 8.015625 -2.65625 8.015625 -3.8125 L 8.015625 -54.953125 L 7.515625 -56.1875 C 7.210938 -56.945312 6.953125 -57.46875 6.734375 -57.75 C 6.523438 -58.039062 6.257812 -58.21875 5.9375 -58.28125 C 5.625 -58.351562 5.066406 -58.390625 4.265625 -58.390625 L 4.265625 -58.875 L 11.921875 -58.875 L 11.921875 -58.390625 L 11.6875 -58.390625 C 11.113281 -58.390625 10.710938 -58.335938 10.484375 -58.234375 C 10.253906 -58.140625 10.140625 -57.945312 10.140625 -57.65625 C 10.140625 -57.4375 10.207031 -57.109375 10.34375 -56.671875 C 10.476562 -56.242188 10.648438 -55.753906 10.859375 -55.203125 L 30.5 -5.3125 L 30.5 -55.3125 C 30.488281 -56.34375 30.441406 -57.054688 30.359375 -57.453125 C 30.273438 -57.847656 30.097656 -58.109375 29.828125 -58.234375 C 29.566406 -58.359375 29.085938 -58.421875 28.390625 -58.421875 L 27.828125 -58.421875 L 27.828125 -58.875 L 33.71875 -58.875 L 33.71875 -58.421875 L 32.9375 -58.421875 C 32.28125 -58.421875 31.832031 -58.359375 31.59375 -58.234375 C 31.351562 -58.117188 31.203125 -57.867188 31.140625 -57.484375 C 31.078125 -57.097656 31.046875 -56.375 31.046875 -55.3125 L 31.046875 -3.90625 L 31.546875 -2.671875 C 31.847656 -1.921875 32.101562 -1.398438 32.3125 -1.109375 C 32.53125 -0.828125 32.796875 -0.648438 33.109375 -0.578125 C 33.421875 -0.503906 33.984375 -0.46875 34.796875 -0.46875 L 34.796875 0 L 27.140625 0 L 27.140625 -0.46875 L 27.375 -0.46875 C 27.957031 -0.46875 28.363281 -0.519531 28.59375 -0.625 C 28.820312 -0.726562 28.9375 -0.914062 28.9375 -1.1875 C 28.9375 -1.375 28.882812 -1.632812 28.78125 -1.96875 C 28.675781 -2.300781 28.554688 -2.671875 28.421875 -3.078125 L 28.203125 -3.65625 L 8.5625 -53.53125 L 8.5625 -3.8125 C 8.59375 -2.65625 8.644531 -1.867188 8.71875 -1.453125 C 8.800781 -1.035156 8.972656 -0.765625 9.234375 -0.640625 C 9.492188 -0.515625 9.972656 -0.453125 10.671875 -0.453125 L 11.234375 -0.453125 L 11.234375 0 L 5.328125 0 L 5.328125 -0.453125 Z M 6.109375 -0.453125 "/></g></g></g><g fill="rgb(0%, 0%, 0%)" fill-opacity="1"><g transform="translate(183.57035, 288.616821)"><g><path d="M 9 -0.375 C 9.332031 -0.375 9.640625 -0.378906 9.921875 -0.390625 C 10.210938 -0.410156 10.445312 -0.453125 10.625 -0.515625 C 8.332031 -2.671875 6.539062 -5.203125 5.25 -8.109375 C 3.957031 -11.023438 3.3125 -14.113281 3.3125 -17.375 C 3.3125 -21.5625 4.347656 -25.421875 6.421875 -28.953125 C 8.503906 -32.492188 11.3125 -35.300781 14.84375 -37.375 C 18.375 -39.457031 22.234375 -40.5 26.421875 -40.5 C 26.753906 -40.5 27.222656 -40.484375 27.828125 -40.453125 L 34.703125 -57.109375 L 33.96875 -58.875 L 36.953125 -58.875 L 59.8125 -3.25 C 60.226562 -2.3125 60.597656 -1.640625 60.921875 -1.234375 C 61.253906 -0.835938 61.59375 -0.59375 61.9375 -0.5 C 62.289062 -0.414062 62.820312 -0.375 63.53125 -0.375 L 63.53125 0 L 55.453125 0 L 55.453125 -0.375 C 56.234375 -0.375 56.757812 -0.414062 57.03125 -0.5 C 57.3125 -0.59375 57.453125 -0.789062 57.453125 -1.09375 C 57.453125 -1.257812 57.398438 -1.5 57.296875 -1.8125 C 57.203125 -2.132812 57.09375 -2.488281 56.96875 -2.875 C 56.8125 -3.332031 56.710938 -3.625 56.671875 -3.75 L 47.140625 -26.875 C 46.015625 -29.28125 44.492188 -31.425781 42.578125 -33.3125 C 40.660156 -35.195312 38.46875 -36.710938 36 -37.859375 C 33.53125 -39.003906 30.929688 -39.679688 28.203125 -39.890625 L 12.984375 -2.96875 C 12.847656 -2.539062 12.726562 -2.15625 12.625 -1.8125 C 12.519531 -1.46875 12.46875 -1.210938 12.46875 -1.046875 C 12.46875 -0.773438 12.570312 -0.59375 12.78125 -0.5 C 13 -0.414062 13.390625 -0.375 13.953125 -0.375 L 14.265625 -0.375 L 14.265625 0 L 9 0 Z M 28.421875 -40.40625 C 31.890625 -40.101562 35.125 -39.082031 38.125 -37.34375 C 41.132812 -35.613281 43.625 -33.359375 45.59375 -30.578125 L 34.984375 -56.375 Z M 11.140625 -0.8125 C 11.359375 -0.976562 11.566406 -1.238281 11.765625 -1.59375 C 11.960938 -1.957031 12.195312 -2.46875 12.46875 -3.125 L 27.609375 -39.90625 C 27.359375 -39.925781 26.960938 -39.9375 26.421875 -39.9375 C 22.347656 -39.9375 18.582031 -38.921875 15.125 -36.890625 C 11.664062 -34.867188 8.921875 -32.132812 6.890625 -28.6875 C 4.867188 -25.238281 3.859375 -21.46875 3.859375 -17.375 C 3.859375 -14.164062 4.5 -11.125 5.78125 -8.25 C 7.070312 -5.382812 8.859375 -2.90625 11.140625 -0.8125 Z M 11.140625 -0.8125 "/></g></g></g><g fill="rgb(0%, 0%, 0%)" fill-opacity="1"><g transform="translate(248.525135, 288.616821)"><g><path d="M 26.265625 -0.125 C 25.910156 -0.0390625 25.597656 0 25.328125 0 C 24.734375 0 24.175781 -0.148438 23.65625 -0.453125 C 23.144531 -0.753906 22.765625 -1.171875 22.515625 -1.703125 C 22.265625 -2.242188 22.140625 -2.78125 22.140625 -3.3125 C 22.140625 -4.007812 22.316406 -4.867188 22.671875 -5.890625 C 23.023438 -6.921875 23.617188 -8.335938 24.453125 -10.140625 L 6.328125 -56.21875 C 6.046875 -56.957031 5.773438 -57.476562 5.515625 -57.78125 C 5.265625 -58.082031 4.976562 -58.265625 4.65625 -58.328125 C 4.34375 -58.390625 3.816406 -58.421875 3.078125 -58.421875 L 3.078125 -58.875 L 10.734375 -58.875 L 10.734375 -58.421875 C 10.035156 -58.421875 9.570312 -58.390625 9.34375 -58.328125 C 9.113281 -58.265625 9 -58.082031 9 -57.78125 C 9 -57.507812 9.097656 -57.070312 9.296875 -56.46875 L 26.28125 -12.875 L 42.390625 -55.046875 L 42.28125 -54.84375 L 42.515625 -55.578125 C 42.691406 -56.078125 42.835938 -56.523438 42.953125 -56.921875 C 43.066406 -57.316406 43.125 -57.609375 43.125 -57.796875 C 43.125 -58.054688 43.023438 -58.222656 42.828125 -58.296875 C 42.640625 -58.378906 42.273438 -58.421875 41.734375 -58.421875 L 40.8125 -58.421875 L 40.8125 -58.875 L 47.1875 -58.875 L 47.1875 -58.421875 L 46.609375 -58.421875 C 45.960938 -58.421875 45.484375 -58.390625 45.171875 -58.328125 C 44.867188 -58.273438 44.609375 -58.140625 44.390625 -57.921875 C 44.179688 -57.710938 43.953125 -57.359375 43.703125 -56.859375 L 26.59375 -12.140625 C 26.65625 -11.960938 26.707031 -11.800781 26.75 -11.65625 C 26.800781 -11.519531 26.851562 -11.382812 26.90625 -11.25 C 27.59375 -9.195312 28.078125 -7.660156 28.359375 -6.640625 C 28.648438 -5.628906 28.796875 -4.710938 28.796875 -3.890625 C 28.796875 -2.984375 28.570312 -2.191406 28.125 -1.515625 C 27.9375 -1.210938 27.675781 -0.925781 27.34375 -0.65625 C 27.007812 -0.394531 26.648438 -0.21875 26.265625 -0.125 Z M 24.890625 -0.734375 C 25.285156 -0.734375 25.644531 -0.816406 25.96875 -0.984375 C 26.289062 -1.148438 26.519531 -1.382812 26.65625 -1.6875 C 26.820312 -2 26.90625 -2.382812 26.90625 -2.84375 C 26.90625 -3.519531 26.738281 -4.328125 26.40625 -5.265625 C 26.082031 -6.210938 25.523438 -7.625 24.734375 -9.5 C 24.078125 -8.082031 23.570312 -6.882812 23.21875 -5.90625 C 22.875 -4.9375 22.703125 -4.070312 22.703125 -3.3125 C 22.703125 -3 22.734375 -2.722656 22.796875 -2.484375 C 22.910156 -2.046875 23.132812 -1.644531 23.46875 -1.28125 C 23.8125 -0.914062 24.285156 -0.734375 24.890625 -0.734375 Z M 24.890625 -0.734375 "/></g></g></g><g fill="rgb(0%, 0%, 0%)" fill-opacity="1"><g transform="translate(296.891626, 288.616821)"><g><path d="M 9 -0.375 C 9.332031 -0.375 9.640625 -0.378906 9.921875 -0.390625 C 10.210938 -0.410156 10.445312 -0.453125 10.625 -0.515625 C 8.332031 -2.671875 6.539062 -5.203125 5.25 -8.109375 C 3.957031 -11.023438 3.3125 -14.113281 3.3125 -17.375 C 3.3125 -21.5625 4.347656 -25.421875 6.421875 -28.953125 C 8.503906 -32.492188 11.3125 -35.300781 14.84375 -37.375 C 18.375 -39.457031 22.234375 -40.5 26.421875 -40.5 C 26.753906 -40.5 27.222656 -40.484375 27.828125 -40.453125 L 34.703125 -57.109375 L 33.96875 -58.875 L 36.953125 -58.875 L 59.8125 -3.25 C 60.226562 -2.3125 60.597656 -1.640625 60.921875 -1.234375 C 61.253906 -0.835938 61.59375 -0.59375 61.9375 -0.5 C 62.289062 -0.414062 62.820312 -0.375 63.53125 -0.375 L 63.53125 0 L 55.453125 0 L 55.453125 -0.375 C 56.234375 -0.375 56.757812 -0.414062 57.03125 -0.5 C 57.3125 -0.59375 57.453125 -0.789062 57.453125 -1.09375 C 57.453125 -1.257812 57.398438 -1.5 57.296875 -1.8125 C 57.203125 -2.132812 57.09375 -2.488281 56.96875 -2.875 C 56.8125 -3.332031 56.710938 -3.625 56.671875 -3.75 L 47.140625 -26.875 C 46.015625 -29.28125 44.492188 -31.425781 42.578125 -33.3125 C 40.660156 -35.195312 38.46875 -36.710938 36 -37.859375 C 33.53125 -39.003906 30.929688 -39.679688 28.203125 -39.890625 L 12.984375 -2.96875 C 12.847656 -2.539062 12.726562 -2.15625 12.625 -1.8125 C 12.519531 -1.46875 12.46875 -1.210938 12.46875 -1.046875 C 12.46875 -0.773438 12.570312 -0.59375 12.78125 -0.5 C 13 -0.414062 13.390625 -0.375 13.953125 -0.375 L 14.265625 -0.375 L 14.265625 0 L 9 0 Z M 28.421875 -40.40625 C 31.890625 -40.101562 35.125 -39.082031 38.125 -37.34375 C 41.132812 -35.613281 43.625 -33.359375 45.59375 -30.578125 L 34.984375 -56.375 Z M 11.140625 -0.8125 C 11.359375 -0.976562 11.566406 -1.238281 11.765625 -1.59375 C 11.960938 -1.957031 12.195312 -2.46875 12.46875 -3.125 L 27.609375 -39.90625 C 27.359375 -39.925781 26.960938 -39.9375 26.421875 -39.9375 C 22.347656 -39.9375 18.582031 -38.921875 15.125 -36.890625 C 11.664062 -34.867188 8.921875 -32.132812 6.890625 -28.6875 C 4.867188 -25.238281 3.859375 -21.46875 3.859375 -17.375 C 3.859375 -14.164062 4.5 -11.125 5.78125 -8.25 C 7.070312 -5.382812 8.859375 -2.90625 11.140625 -0.8125 Z M 11.140625 -0.8125 "/></g></g></g></svg>