<svg width="116" height="116" viewBox="0 0 116 116" fill="none" xmlns="http://www.w3.org/2000/svg">
<g clip-path="url(#clip0)">
<circle cx="58" cy="58" r="57.1" transform="rotate(-180 58 58)" fill="#3C3A34" stroke="#3C3A34" stroke-width="1.79991"/>
<g clip-path="url(#clip1)">
<path d="M53.1668 33.8333L48.3335 29" stroke="#FAFAF8" stroke-width="1.61111"/>
<path d="M67.6668 28.9999L62.8335 33.8333" stroke="#FAFAF8" stroke-width="1.61111"/>
<path d="M58.0002 27.3889L58.0002 33.8334" stroke="#FAFAF8" stroke-width="1.61111"/>
<path d="M57.7768 37.0555C45.7174 37.0555 35.4446 48.1619 35.4446 48.1619C35.4446 48.1619 46.1641 56.3889 57.7768 56.3889C69.3896 56.3889 80.5557 48.1619 80.5557 48.1619C80.5557 48.1619 70.2829 37.0555 57.7768 37.0555Z" stroke="#FAFAF8" stroke-width="1.61111"/>
<ellipse cx="58.0001" cy="46.7223" rx="6.44444" ry="6.44445" stroke="#FAFAF8" stroke-width="1.61111"/>
</g>
<path d="M23.7104 70.9122H32.3138L32.0624 72.1109H24.7931L23.7298 77.0602H30.0711L29.8391 78.2009H23.4978L22.3764 83.4402H29.8198L29.5684 84.6389H20.7911L23.7104 70.9122ZM37.2637 79.6316L34.6924 74.5662H36.1037L38.0757 78.5102L38.153 78.8002L38.3657 78.5296L42.039 74.5662H43.4504L38.733 79.6316L41.3044 84.6389H39.893L37.921 80.7142L37.805 80.4436L37.6117 80.6949L33.977 84.6389H32.5464L37.2637 79.6316ZM47.0743 74.5662H48.2343L47.8283 76.5189C48.3439 75.8874 48.9561 75.3782 49.665 74.9916C50.3739 74.592 51.0956 74.3922 51.8303 74.3922C52.3845 74.3922 52.8807 74.5082 53.319 74.7402C53.7701 74.9722 54.1503 75.2816 54.4596 75.6682C54.769 76.0549 55.001 76.506 55.1556 77.0216C55.3232 77.5371 55.407 78.072 55.407 78.6262C55.407 79.4125 55.2587 80.1794 54.9623 80.9269C54.6659 81.6745 54.2599 82.3382 53.7443 82.9182C53.2287 83.4982 52.6294 83.9622 51.9463 84.3102C51.2761 84.6582 50.5672 84.8322 49.8196 84.8322C49.0076 84.8322 48.3374 84.6196 47.809 84.1942C47.2934 83.756 46.9196 83.2082 46.6876 82.5509L45.373 88.7569H44.0583L47.0743 74.5662ZM49.7036 83.6722C50.2836 83.6722 50.8379 83.5305 51.3663 83.2469C51.8947 82.9505 52.3523 82.5767 52.739 82.1256C53.1385 81.6616 53.4543 81.146 53.6863 80.5789C53.9183 79.9989 54.0343 79.4189 54.0343 78.8389C54.0343 78.3878 53.9699 77.9625 53.841 77.5629C53.7121 77.1634 53.5252 76.8154 53.2803 76.5189C53.0354 76.2225 52.7454 75.9905 52.4103 75.8229C52.0752 75.6425 51.695 75.5522 51.2696 75.5522C50.9603 75.5522 50.6187 75.6231 50.245 75.7649C49.8841 75.8938 49.5296 76.0742 49.1816 76.3062C48.8336 76.5254 48.5179 76.7896 48.2343 77.0989C47.9636 77.3954 47.7639 77.7111 47.635 78.0462L46.9776 81.1396C47.0421 81.5005 47.1516 81.8356 47.3063 82.1449C47.4739 82.4542 47.6736 82.7249 47.9056 82.9569C48.1505 83.176 48.4212 83.35 48.7176 83.4789C49.027 83.6078 49.3556 83.6722 49.7036 83.6722ZM60.2166 84.7549C59.7397 84.7549 59.3659 84.6325 59.0953 84.3876C58.8246 84.1427 58.6893 83.7947 58.6893 83.3436C58.6893 83.2662 58.6957 83.1825 58.7086 83.0922C58.7215 83.002 58.7408 82.9054 58.7666 82.8022L61.3573 70.5256H62.6719L60.1586 82.3576C60.1457 82.422 60.1328 82.48 60.1199 82.5316C60.1199 82.5831 60.1199 82.6411 60.1199 82.7056C60.1199 83.2727 60.4228 83.5562 61.0286 83.5562C61.1704 83.5562 61.3379 83.5369 61.5313 83.4982C61.7246 83.4596 61.9115 83.408 62.0919 83.3436L62.0533 84.4069C61.7955 84.51 61.4861 84.5938 61.1253 84.6582C60.7773 84.7227 60.4744 84.7549 60.2166 84.7549ZM69.3378 84.8322C68.745 84.8322 68.2101 84.7227 67.7332 84.5036C67.2692 84.2716 66.8761 83.9687 66.5538 83.5949C66.2316 83.2082 65.9803 82.7636 65.7998 82.2609C65.6323 81.7454 65.5485 81.1976 65.5485 80.6176C65.5485 79.8056 65.7096 79.0258 66.0318 78.2782C66.367 77.5307 66.8116 76.8734 67.3658 76.3062C67.9201 75.7262 68.5581 75.2622 69.2798 74.9142C70.0016 74.5662 70.7621 74.3922 71.5612 74.3922C72.1541 74.3922 72.6825 74.5082 73.1465 74.7402C73.6105 74.9594 74.0036 75.2622 74.3258 75.6489C74.661 76.0227 74.9123 76.4674 75.0798 76.9829C75.2603 77.4985 75.3505 78.0462 75.3505 78.6262C75.3505 79.4254 75.183 80.1987 74.8478 80.9462C74.5256 81.6938 74.0874 82.3576 73.5332 82.9376C72.9918 83.5047 72.3538 83.9622 71.6192 84.3102C70.8974 84.6582 70.137 84.8322 69.3378 84.8322ZM69.5892 83.6722C70.1305 83.6722 70.6654 83.5434 71.1938 83.2856C71.7223 83.0149 72.1927 82.6605 72.6052 82.2222C73.0176 81.7711 73.3527 81.2556 73.6105 80.6756C73.8683 80.0827 73.9972 79.4576 73.9972 78.8002C73.9972 78.3491 73.9327 77.9238 73.8038 77.5242C73.675 77.1247 73.4881 76.7831 73.2432 76.4996C73.0112 76.2031 72.7276 75.9711 72.3925 75.8036C72.0703 75.636 71.7094 75.5522 71.3098 75.5522C70.7685 75.5522 70.2336 75.6876 69.7052 75.9582C69.1896 76.216 68.7192 76.5705 68.2938 77.0216C67.8814 77.4727 67.5463 77.9947 67.2885 78.5876C67.0307 79.1805 66.9018 79.8056 66.9018 80.4629C66.9018 80.914 66.9663 81.3394 67.0952 81.7389C67.2241 82.1256 67.4045 82.4671 67.6365 82.7636C67.8814 83.0471 68.165 83.2727 68.4872 83.4402C68.8223 83.5949 69.1896 83.6722 69.5892 83.6722ZM80.4012 74.5662H81.6385L81.1165 76.9829C81.6192 76.2482 82.1863 75.6682 82.8179 75.2429C83.4623 74.8047 84.1132 74.5727 84.7705 74.5469C84.8736 74.5469 84.9574 74.5534 85.0219 74.5662C85.0992 74.5662 85.1701 74.5727 85.2345 74.5856L84.9832 75.7262C84.1454 75.752 83.3656 75.9969 82.6439 76.4609C81.9221 76.9249 81.3421 77.5629 80.9039 78.3749L79.5892 84.6389H78.2745L80.4012 74.5662ZM90.5204 84.8322C89.9017 84.8322 89.3475 84.7227 88.8577 84.5036C88.3808 84.2845 87.9748 83.9816 87.6397 83.5949C87.3175 83.2082 87.0662 82.7571 86.8857 82.2416C86.7182 81.726 86.6344 81.1718 86.6344 80.5789C86.6344 79.7798 86.789 79.0129 87.0984 78.2782C87.4077 77.5307 87.833 76.8734 88.3744 76.3062C88.9157 75.7262 89.5537 75.2622 90.2884 74.9142C91.0359 74.5662 91.8415 74.3922 92.705 74.3922C93.1433 74.3922 93.5557 74.4502 93.9424 74.5662C94.3419 74.6822 94.6835 74.8562 94.967 75.0882C95.2635 75.3074 95.4955 75.5909 95.663 75.9389C95.8306 76.274 95.9144 76.6607 95.9144 77.0989C95.9144 78.0914 95.4762 78.8389 94.5997 79.3416C93.7233 79.8442 92.3699 80.0956 90.5397 80.0956C90.1788 80.0956 89.7857 80.0891 89.3604 80.0762C88.9479 80.0634 88.4968 80.0376 88.007 79.9989C87.9942 80.102 87.9813 80.1987 87.9684 80.2889C87.9684 80.3791 87.9684 80.4694 87.9684 80.5596C87.9684 80.9978 88.0264 81.4167 88.1424 81.8162C88.2584 82.2029 88.4324 82.5509 88.6644 82.8602C88.8964 83.1567 89.1864 83.3951 89.5344 83.5756C89.8824 83.7431 90.2884 83.8269 90.7524 83.8269C91.0617 83.8269 91.3775 83.7818 91.6997 83.6916C92.0219 83.6014 92.3248 83.4789 92.6084 83.3242C92.9048 83.1567 93.1755 82.9569 93.4204 82.7249C93.6653 82.4929 93.8715 82.2351 94.039 81.9516L95.1217 82.2802C94.8897 82.654 94.6062 83.002 94.271 83.3242C93.9359 83.6336 93.5622 83.9042 93.1497 84.1362C92.7502 84.3554 92.3248 84.5229 91.8737 84.6389C91.4355 84.7678 90.9844 84.8322 90.5204 84.8322ZM92.5697 75.4169C91.9897 75.4169 91.4613 75.52 90.9844 75.7262C90.5075 75.9325 90.0822 76.2031 89.7084 76.5382C89.3346 76.8734 89.0188 77.26 88.761 77.6982C88.5033 78.1365 88.3099 78.5876 88.181 79.0516C88.645 79.0774 89.0704 79.1031 89.457 79.1289C89.8566 79.1418 90.2368 79.1482 90.5977 79.1482C91.3582 79.1482 92.0026 79.0967 92.531 78.9936C93.0595 78.8905 93.4848 78.7487 93.807 78.5682C94.1293 78.3878 94.3613 78.1687 94.503 77.9109C94.6448 77.6531 94.7157 77.376 94.7157 77.0796C94.7157 76.4996 94.503 76.0807 94.0777 75.8229C93.6524 75.5522 93.1497 75.4169 92.5697 75.4169Z" fill="#FAFAF8"/>
</g>
<defs>
<clipPath id="clip0">
<rect width="116" height="116" fill="white"/>
</clipPath>
<clipPath id="clip1">
<rect width="58" height="41.8889" fill="white" transform="translate(29 20.9445)"/>
</clipPath>
</defs>
</svg>
